HIERARCHY
ROOT Hips
{
  OFFSET 25.7658 99.419 10.2675
  CHANNELS 6 Xposition Yposition Zposition Zrotation Xrotation Yrotation
  JOINT ToSpine
  {
    OFFSET -0.0105055 1.38907 -7.13956
    CHANNELS 3 Zrotation Xrotation Yrotation
    JOINT Spine
    {
      OFFSET 0.0105055 10 1
      CHANNELS 3 Zrotation Xrotation Yrotation
      JOINT Spine1
      {
        OFFSET 0 12 1.60637
        CHANNELS 3 Zrotation Xrotation Yrotation
        JOINT Neck
        {
          OFFSET 0 27 2.26658
          CHANNELS 3 Zrotation Xrotation Yrotation
          JOINT Head
          {
            OFFSET 0 9 2.12705
            CHANNELS 3 Zrotation Xrotation Yrotation
            End Site
            {
              OFFSET 0 11 2
            }
          }
        }
        JOINT LeftShoulder
        {
          OFFSET 8 19.6109 2.86452
          CHANNELS 3 Zrotation Xrotation Yrotation
          JOINT LeftArm
          {
            OFFSET 12 1 0.681055
            CHANNELS 3 Zrotation Xrotation Yrotation
            JOINT LeftForeArm
            {
              OFFSET 19 0 -1.52608
              CHANNELS 3 Zrotation Xrotation Yrotation
              JOINT LeftHand
              {
                OFFSET 23 0 0
                CHANNELS 3 Zrotation Xrotation Yrotation
                End Site
                {
                  OFFSET 10 0 0
                }
              }
            }
          }
        }
        JOINT RightShoulder
        {
          OFFSET -8 19.6109 2.86452
          CHANNELS 3 Zrotation Xrotation Yrotation
          JOINT RightArm
          {
            OFFSET -12 1 0.681055
            CHANNELS 3 Zrotation Xrotation Yrotation
            JOINT RightForeArm
            {
              OFFSET -19 0 -1.52608
              CHANNELS 3 Zrotation Xrotation Yrotation
              JOINT RightHand
              {
                OFFSET -23 0 0
                CHANNELS 3 Zrotation Xrotation Yrotation
                End Site
                {
                  OFFSET -10 0 0
                }
              }
            }
          }
        }
      }
    }
  }
  JOINT LeftUpLeg
  {
    OFFSET 9 -7.17245 0
    CHANNELS 3 Zrotation Xrotation Yrotation
    JOINT LeftLeg
    {
      OFFSET 0 -44.1113 0
      CHANNELS 3 Zrotation Xrotation Yrotation
      JOINT LeftFoot
      {
        OFFSET 0 -36.1829 0
        CHANNELS 3 Zrotation Xrotation Yrotation
        JOINT LeftToeBase
        {
          OFFSET 0 -4.84184 13
          CHANNELS 3 Zrotation Xrotation Yrotation
          End Site
          {
            OFFSET 0 1 6
          }
        }
      }
    }
  }
  JOINT RightUpLeg
  {
    OFFSET -9 -7.17245 0
    CHANNELS 3 Zrotation Xrotation Yrotation
    JOINT RightLeg
    {
      OFFSET 0 -44.0551 0
      CHANNELS 3 Zrotation Xrotation Yrotation
      JOINT RightFoot
      {
        OFFSET 0 -36.1469 0
        CHANNELS 3 Zrotation Xrotation Yrotation
        JOINT RightToeBase
        {
          OFFSET 0 -4.92256 13
          CHANNELS 3 Zrotation Xrotation Yrotation
          End Site
          {
            OFFSET 0 1 6
          }
        }
      }
    }
  }
}
MOTION
Frames:	12
Frame Time:	0.0333333
25.7658 99.419 10.2675 0.709414 -5.35499 -1.95124 0 0 0 3.17222 2.18391 1.07101 -5.25657 2.66426 1.87786 6.60488 3.22609 -1.88895 -5.0492 -0.379824 1.38107 -30.0046 3.20097 -5.35687 -45.5292 19.8596 -12.182 -4.75006 -17.8584 -2.5738 -8.04552 0.180837 -2.57098 25.822 5.64909 14.0309 52.5335 13.7452 2.63938 3.26643 -2.37067 11.1204 3.28577 0.12127 4.22622 2.21162 5.08114 9.04006 -1.65466 9.27755 -1.38612 0.558961 -10.1119 0.0494531 0.702597 0.960281 -3.09778 -3.07704 4.42509 -7.74416 -0.220224 8.71036 1.91941 -12.338 -3.22537 -0.348711 4.36201 -16.5774 -4.65837 
25.7213 99.3802 10.2836 0.696484 -5.46295 -1.8138 0 0 0 2.41874 2.40401 1.32451 -3.87047 2.43147 1.85074 5.93071 3.49386 -1.88135 -4.7954 -0.259197 1.13101 -30.699 3.34652 -5.586 -45.7013 18.2142 -12.0589 -4.4334 -17.0928 -2.02457 -8.99312 0.259537 -3.29936 25.1058 5.37215 13.5437 53.0648 15.0491 1.31859 3.21886 -3.62359 13.5691 3.19223 0.100676 3.61184 2.22449 5.11053 9.04019 -1.63488 9.43109 -1.77279 1.01174 -9.94453 0.0880249 0.452799 -0.0186812 -1.89037 -3.10973 4.53974 -7.86068 -0.0347142 8.75735 2.10379 -13.0711 -2.7953 -0.320304 4.55138 -17.4092 -4.83383 
25.6471 99.4279 10.3501 0.867059 -5.36849 -1.76188 0 0 0 2.401 2.0913 1.28714 -3.75739 2.63641 1.81435 5.49538 3.59399 -1.71844 -4.6588 -0.355808 1.12052 -31.2134 3.31889 -5.38826 -45.4775 18.0564 -11.541 -4.22607 -15.0726 -2.63246 -10.0513 0.370133 -4.20704 24.7736 5.33414 13.5958 53.1828 14.0021 2.52825 3.13341 -1.75437 11.1701 2.83119 0.096033 3.88463 2.04065 5.29768 8.83317 -1.5144 8.8282 -1.15413 0.768314 -9.78842 0.0657905 0.964004 0.204261 -4.0631 -3.28737 4.42433 -7.96736 -0.0354896 8.97557 3.01263 -13.4342 -2.44403 -0.28789 4.5007 -17.3308 -5.82761 
25.4992 99.3907 10.4067 0.672233 -5.19686 -1.64534 0 0 0 2.88174 1.766 1.29277 -4.01718 2.77001 1.84084 5.52854 3.64309 -1.87507 -4.54583 -0.237126 0.957843 -31.0397 3.37169 -5.57106 -44.8824 21.0574 -10.4732 -5.15333 -18.2295 -4.83842 -9.53459 0.270311 -3.24037 24.5463 5.31851 13.6649 53.2944 13.3285 2.51172 3.10124 -2.02023 10.654 4.0326 0.155139 4.40449 2.34295 4.96826 8.97034 -1.59106 9.21518 -2.00882 1.5714 -9.52417 0.130915 0.310113 -0.42503 -1.19938 -3.05799 4.42033 -7.99 0.294633 8.75625 2.53534 -14.0101 -2.42171 -0.297609 4.71758 -18.2447 -5.54171 
25.4473 99.428 10.5012 0.729006 -5.25682 -1.72923 0 0 0 3.41284 1.6141 1.3568 -4.74489 3.0461 2.06065 5.78314 3.36233 -1.89401 -4.316 0.197072 0.974619 -30.6731 3.32448 -5.53267 -44.8005 21.5817 -10.5861 -5.18499 -18.3433 -4.27928 -8.82101 0.18856 -2.44432 24.8944 5.38229 13.6849 53.0068 12.6068 2.08021 2.47321 -0.519207 11.3014 4.13356 0.135643 3.75734 2.1196 5.33157 8.62789 -1.07031 8.66912 -1.03712 0.291939 -9.88702 0.0252514 0.881725 0.767486 -3.7986 -3.12107 4.60815 -8.05158 0.258572 8.69708 2.74418 -13.6327 -2.62801 -0.314186 4.424 -16.927 -5.35262 
25.2864 99.4147 10.6437 0.736439 -5.32908 -1.85733 0 0 0 3.45441 1.33697 1.44222 -4.71298 3.32793 2.13145 5.85725 3.50356 -1.83022 -4.49222 0.0152968 1.10118 -30.7598 3.32545 -5.5143 -44.981 20.6853 -10.4494 -4.97843 -17.9918 -3.49363 -9.08488 0.213582 -2.68787 24.7347 5.34828 13.6608 53.1199 12.4982 2.20172 2.61169 -0.84882 11.0151 3.77355 0.130922 3.97269 2.14766 5.65264 8.65837 -1.03648 8.38157 -0.972925 0.540819 -9.73007 0.0460325 0.908036 0.371756 -3.85299 -3.1413 4.82519 -8.19142 0.447935 8.61121 3.13953 -13.6988 -2.67959 -0.321924 4.44015 -17.0174 -5.50394 
25.1817 99.4057 10.6852 0.893268 -5.20547 -1.74991 0 0 0 3.69767 1.11637 1.41718 -5.25717 3.4136 2.2252 6.31281 3.42022 -1.90162 -4.76813 0.0038223 1.23642 -30.1986 3.32236 -5.64328 -45.7915 18.9983 -10.4722 -4.55623 -16.8065 -2.13399 -8.89224 0.210374 -2.70508 24.9658 5.28308 13.3357 53.0934 13.5085 2.58358 3.52978 -3.49902 10.5456 2.00865 0.0838363 4.77953 2.05624 5.60033 8.57529 -1.05049 8.20591 -1.01756 0.457912 -9.58929 0.038409 0.850621 0.235334 -3.59556 -3.22297 4.64822 -8.22966 0.417969 8.82961 2.90157 -13.6849 -2.94976 -0.354031 4.43103 -16.9417 -5.22551 
25.03 99.4154 10.7573 1.10493 -5.5964 -1.59307 0 0 0 3.03508 1.48343 1.42409 -4.56362 3.43792 2.12554 6.22008 3.34426 -2.11445 -4.88293 -0.191533 1.00961 -30.8406 3.35011 -5.56127 -44.9407 20.6603 -10.2519 -4.97298 -18.3625 -2.47816 -8.4969 0.212347 -2.85793 25.0523 5.30779 13.3693 52.5265 12.8909 2.39179 2.5859 -0.287555 10.8595 3.4009 0.126637 4.26376 1.84102 6.27823 8.43248 -0.922185 7.66872 -1.00739 0.435198 -9.35135 0.0355939 0.878973 0.229998 -3.71271 -3.34662 5.08185 -8.39624 0.354058 8.95241 3.00411 -13.7954 -3.00874 -0.364057 4.47382 -17.1334 -5.26382 
24.9174 99.4041 10.7014 0.981482 -5.30365 -1.49633 0 0 0 3.09554 1.65394 1.28324 -4.27559 2.82729 1.89154 5.57645 3.47987 -1.77041 -4.32698 -0.0961664 1.02677 -31.3312 3.31608 -5.35304 -45.0645 20.5224 -9.60887 -4.95905 -18.3198 -2.67326 -9.4294 0.225941 -2.73904 24.6253 5.32823 13.6544 52.7736 13.3297 2.24319 2.5708 0.0612 10.9716 3.29858 0.11794 4.09431 2.1141 5.72883 8.51874 -0.96861 8.04682 -1.20824 0.89478 -9.1927 0.0719364 0.883133 -0.396605 -3.63961 -3.07268 4.79579 -8.15346 0.310471 8.84787 2.64437 -13.6369 -2.87417 -0.343733 4.48177 -17.1825 -5.36943 
24.857 99.4276 10.6026 1.20222 -5.50264 -0.550789 0 0 0 2.51325 2.33844 0.85601 -3.80889 2.32592 1.38806 5.8558 3.40526 -1.89677 -4.45317 -0.124751 1.01647 -31.1299 3.34665 -5.48232 -45.6333 19.2123 -9.39581 -4.58354 -17.3475 -2.55722 -9.49729 0.211544 -2.54617 24.7936 5.37232 13.706 52.4501 13.2244 2.23291 2.63104 -0.459624 11.1112 3.20916 0.122335 4.36506 2.0792 5.68987 8.41689 -1.07759 8.22367 -2.43863 1.13781 -9.08099 0.0903597 0.554094 -0.248838 -2.27049 -3.36965 4.99358 -8.66872 0.606517 9.06568 2.32606 -13.4961 -2.95221 -0.349392 4.62096 -17.736 -5.01935 
24.7434 99.4147 10.6476 1.26628 -5.68957 -0.5033 0 0 0 2.43252 2.47315 0.879891 -3.768 2.43739 1.40929 5.90679 3.44904 -1.95967 -4.43502 -0.478054 0.955745 -31.0309 3.34833 -5.51055 -45.9777 19.8619 -9.30507 -4.77046 -17.1017 -2.80563 -9.5444 0.200375 -2.39982 24.641 5.29826 13.5511 52.7451 13.2219 2.42474 2.92872 -1.79847 11.1295 3.03194 0.116912 4.41544 2.09557 5.97584 8.44847 -1.01198 8.06284 -2.11002 0.857336 -9.16076 0.0686854 0.958913 -0.242499 -3.98265 -3.34009 5.23092 -8.70554 0.636287 9.11965 2.21035 -13.7529 -3.15455 -0.380521 4.48771 -17.1591 -5.00516 
24.6374 99.4025 10.6577 0.94854 -5.42071 -0.471242 0 0 0 3.13579 2.21351 0.842171 -4.22819 2.40113 1.44296 5.91243 3.31288 -1.9644 -4.36375 -0.211539 0.940713 -30.9111 3.3302 -5.49061 -46.3183 20.7873 -9.07026 -4.83237 -16.398 -4.21675 -8.58517 0.0181815 -0.242225 24.5616 5.28294 13.5437 53.0061 13.352 2.41708 3.08364 -2.36431 11.0995 2.49536 0.0959723 4.40437 2.69789 5.45003 8.88042 -1.36706 8.63271 -2.94412 1.3325 -8.92609 0.10401 0.6839 -0.728825 -2.73333 -2.74543 5.05751 -8.14097 0.358537 8.80544 1.76832 -13.4272 -2.9782 -0.350653 4.50882 -17.2633 -5.09969 
